<?xml version="1.0" encoding="UTF-8" standalone="no"?>
<svg
  xmlns="http://www.w3.org/2000/svg"
  width="40"
  height="40"
  version="1.1"
  viewBox="0 0 512 512"
>
  <g>
    <g>
      <g>
        <g>
          <path
            fill="#ffe14d"
            d="M312.439 180H47.56a15 15 0 01-14.14-9.995A59.766 59.766 0 0130 150c0-21.867 12.028-41.635 30.537-52.081A58.702 58.702 0 0160 90c0-33.084 26.916-60 60-60 2.652 0 5.295.18 7.919.537C138.366 12.029 158.133 0 180 0c21.867 0 41.634 12.029 52.081 30.537A58.713 58.713 0 01240 30c33.084 0 60 26.916 60 60 0 2.653-.18 5.295-.537 7.919C317.972 108.366 330 128.133 330 150c0 6.863-1.15 13.594-3.42 20.005A15 15 0 01312.439 180z"
          ></path>
        </g>
      </g>
    </g>
    <path
      fill="#fb3"
      d="M312.439 180c6.354 0 12.02-4.004 14.141-9.995A59.775 59.775 0 00330 150c0-21.867-12.028-41.634-30.537-52.081.357-2.624.537-5.266.537-7.919 0-33.084-26.916-60-60-60-2.652 0-5.295.18-7.919.537C221.634 12.029 201.867 0 180 0v180z"
    ></path>
    <g>
      <path
        fill="#ffe14d"
        d="M512 392c0-33.08-26.92-60-60-60-10.92 0-21.17 2.93-30 8.05-17.92 10.4-30 29.79-30 51.95-33.08 0-60 26.92-60 60s26.92 60 60 60c10.57 0 20.9-2.85 30-8.18 9.1 5.33 19.43 8.18 30 8.18 33.08 0 60-26.92 60-60 0-10.57-2.85-20.9-8.18-30 5.33-9.1 8.18-19.43 8.18-30z"
      ></path>
    </g>
    <g>
      <path
        fill="#fb3"
        d="M201.213 128.787a14.95 14.95 0 01-10.606-4.393A14.902 14.902 0 00180 120c-4.006 0-7.773 1.56-10.607 4.394-5.858 5.858-15.355 5.857-21.213-.001-5.858-5.858-5.857-15.355 0-21.213C156.68 94.681 167.98 90 180 90s23.32 4.681 31.82 13.18c5.858 5.858 5.858 15.355 0 21.213a14.952 14.952 0 01-10.607 4.394z"
      ></path>
    </g>
    <path
      fill="#e68a2e"
      d="M190.607 124.394a14.953 14.953 0 0010.606 4.393c3.838 0 7.678-1.465 10.607-4.394 5.858-5.858 5.857-15.355 0-21.213C203.32 94.681 192.02 90 180 90v30c4.006 0 7.773 1.56 10.607 4.394z"
    ></path>
    <path
      fill="#2c5aa0"
      d="M329.94 166.35l-30 332c-.7 7.73-7.18 13.65-14.94 13.65h-53.18l-7.186-187 23.536-175H315c4.21 0 8.23 1.77 11.07 4.88 2.85 3.11 4.25 7.27 3.87 11.47z"
    ></path>
    <path fill="#dfe7f4" d="M248.17 150l-16.35 362H180V150z"></path>
    <g>
      <g>
        <g>
          <path
            fill="#80b3ff"
            d="M128.18 512H75c-7.76 0-14.24-5.92-14.94-13.65l-30-332c-.38-4.2 1.02-8.36 3.87-11.47C36.77 151.77 40.79 150 45 150h66.82l22.954 175z"
          ></path>
        </g>
      </g>
    </g>
    <path fill="#f0f7ff" d="M180 150v362h-51.82l-16.36-362z"></path>
    <g>
      <g>
        <path
          fill="#59f"
          d="M345 180H15c-8.284 0-15-6.716-15-15 0-8.284 6.716-15 15-15h330c8.284 0 15 6.716 15 15 0 8.284-6.716 15-15 15z"
        ></path>
      </g>
    </g>
    <path
      fill="#214478"
      d="M180 180h165c8.284 0 15-6.716 15-15 0-8.284-6.716-15-15-15H180z"
    ></path>
    <path
      fill="#fb3"
      d="M503.82 422c5.33 9.1 8.18 19.43 8.18 30 0 33.08-26.92 60-60 60-10.57 0-20.9-2.85-30-8.18V340.05a59.627 59.627 0 0130-8.05c33.08 0 60 26.92 60 60 0 10.57-2.85 20.9-8.18 30z"
    ></path>
  </g>
</svg>