<svg xmlns="http://www.w3.org/2000/svg" xmlns:xlink="http://www.w3.org/1999/xlink">
  <defs>

    <symbol viewBox="0 0 512 512" id="popcorn-icon">
        <g>
            <g>
                <g>
                    <g>
                        <path
                            fill="#ffe14d"
                            d="M312.439 180H47.56a15 15 0 01-14.14-9.995A59.766 59.766 0 0130 150c0-21.867 12.028-41.635 30.537-52.081A58.702 58.702 0 0160 90c0-33.084 26.916-60 60-60 2.652 0 5.295.18 7.919.537C138.366 12.029 158.133 0 180 0c21.867 0 41.634 12.029 52.081 30.537A58.713 58.713 0 01240 30c33.084 0 60 26.916 60 60 0 2.653-.18 5.295-.537 7.919C317.972 108.366 330 128.133 330 150c0 6.863-1.15 13.594-3.42 20.005A15 15 0 01312.439 180z"
                        />
                    </g>
                </g>
            </g>
            <path
                fill="#fb3"
                d="M312.439 180c6.354 0 12.02-4.004 14.141-9.995A59.775 59.775 0 00330 150c0-21.867-12.028-41.634-30.537-52.081.357-2.624.537-5.266.537-7.919 0-33.084-26.916-60-60-60-2.652 0-5.295.18-7.919.537C221.634 12.029 201.867 0 180 0v180z"
            />
            <g>
                <path
                    fill="#ffe14d"
                    d="M512 392c0-33.08-26.92-60-60-60-10.92 0-21.17 2.93-30 8.05-17.92 10.4-30 29.79-30 51.95-33.08 0-60 26.92-60 60s26.92 60 60 60c10.57 0 20.9-2.85 30-8.18 9.1 5.33 19.43 8.18 30 8.18 33.08 0 60-26.92 60-60 0-10.57-2.85-20.9-8.18-30 5.33-9.1 8.18-19.43 8.18-30z"
                />
            </g>
            <g>
                <path
                    fill="#fb3"
                    d="M201.213 128.787a14.95 14.95 0 01-10.606-4.393A14.902 14.902 0 00180 120c-4.006 0-7.773 1.56-10.607 4.394-5.858 5.858-15.355 5.857-21.213-.001-5.858-5.858-5.857-15.355 0-21.213C156.68 94.681 167.98 90 180 90s23.32 4.681 31.82 13.18c5.858 5.858 5.858 15.355 0 21.213a14.952 14.952 0 01-10.607 4.394z"
                />
            </g>
            <path
                fill="#e68a2e"
                d="M190.607 124.394a14.953 14.953 0 0010.606 4.393c3.838 0 7.678-1.465 10.607-4.394 5.858-5.858 5.857-15.355 0-21.213C203.32 94.681 192.02 90 180 90v30c4.006 0 7.773 1.56 10.607 4.394z"
            />
            <path
                fill="#2c5aa0"
                d="M329.94 166.35l-30 332c-.7 7.73-7.18 13.65-14.94 13.65h-53.18l-7.186-187 23.536-175H315c4.21 0 8.23 1.77 11.07 4.88 2.85 3.11 4.25 7.27 3.87 11.47z"
            />
            <path fill="#dfe7f4" d="M248.17 150l-16.35 362H180V150z"/>
            <g>
                <g>
                    <g>
                        <path
                            fill="#80b3ff"
                            d="M128.18 512H75c-7.76 0-14.24-5.92-14.94-13.65l-30-332c-.38-4.2 1.02-8.36 3.87-11.47C36.77 151.77 40.79 150 45 150h66.82l22.954 175z"
                        />
                    </g>
                </g>
            </g>
            <path fill="#f0f7ff" d="M180 150v362h-51.82l-16.36-362z" />
            <g>
                <g>
                    <path
                        fill="#59f"
                        d="M345 180H15c-8.284 0-15-6.716-15-15 0-8.284 6.716-15 15-15h330c8.284 0 15 6.716 15 15 0 8.284-6.716 15-15 15z"
                    />
                </g>
            </g>
            <path
                fill="#214478"
                d="M180 180h165c8.284 0 15-6.716 15-15 0-8.284-6.716-15-15-15H180z"
            />
            <path
                fill="#fb3"
                d="M503.82 422c5.33 9.1 8.18 19.43 8.18 30 0 33.08-26.92 60-60 60-10.57 0-20.9-2.85-30-8.18V340.05a59.627 59.627 0 0130-8.05c33.08 0 60 26.92 60 60 0 10.57-2.85 20.9-8.18 30z"
            />
        </g>
    </symbol>

    <symbol viewBox="0 0 24 24" id="star-icon">
      <path d="M12 17.27L18.18 21l-1.64-7.03L22 9.24l-7.19-.61L12 2 9.19 8.63 2 9.24l5.46 4.73L5.82 21z" />    
    </symbol>

    <symbol viewBox="0 0 40 40" id="github-icon">
      <g fill="none" fillRule="evenodd" transform="scale(2)">
        <g fill="#3F51B5" transform="translate(-140 -7559)">
          <g transform="translate(56 160)">
            <path d="M94 7399c5.523 0 10 4.59 10 10.253 0 4.529-2.862 8.371-6.833 9.728-.507.101-.687-.219-.687-.492 0-.338.012-1.442.012-2.814 0-.956-.32-1.58-.679-1.898 2.227-.254 4.567-1.121 4.567-5.059 0-1.12-.388-2.034-1.03-2.752.104-.259.447-1.302-.098-2.714 0 0-.838-.275-2.747 1.051a9.396 9.396 0 00-2.505-.345c-.85 0-1.705.118-2.503.345-1.911-1.326-2.751-1.051-2.751-1.051-.543 1.412-.2 2.455-.097 2.714-.639.718-1.03 1.632-1.03 2.752 0 3.928 2.335 4.808 4.556 5.067-.286.256-.545.708-.635 1.371-.57.262-2.018.715-2.91-.852 0 0-.529-.985-1.533-1.057 0 0-.975-.013-.068.623 0 0 .655.315 1.11 1.5 0 0 .587 1.83 3.369 1.21.005.857.014 1.665.014 1.909 0 .271-.184.588-.683.493-3.974-1.355-6.839-5.199-6.839-9.729 0-5.663 4.478-10.253 10-10.253"></path>
          </g>
        </g>
      </g>    
    </symbol>

    <symbol viewBox="0 0 5.292 5.292" id="search-icon">
        <path d="M5.246 5.022L3.96 3.736c.345-.397.554-.914.554-1.48A2.259 2.259 0 002.257 0 2.259 2.259 0 000 2.256a2.26 2.26 0 002.257 2.256c.565 0 1.083-.208 1.48-.553l1.286 1.286c.03.03.072.047.111.047s.081-.016.112-.047a.159.159 0 000-.223zM.316 2.256c0-1.07.87-1.94 1.94-1.94 1.07 0 1.94.871 1.94 1.94 0 1.07-.87 1.941-1.94 1.941-1.07 0-1.94-.87-1.94-1.94z" />
    </symbol>
    
    <symbol viewBox="0 0 37.5 40" id="movie-icon">
        <g transform="scale(.32479 .32552)" fill="#000">
            <path class="st0" d="m108.07 15.56-102.37 37.28-5.7-15.62 102.37-37.22zm7.39 107.32h-109.59v-69.21h109.59zm-13.67-107.23v-13.29l-7.23 2.61v13.34zm-14.4 5.28v-13.34l-7.26 2.58v13.45zm-14.9 5.14v-13.2l-7.26 2.61v13.26zm40.94 42.25-4.56-12.54h-7.73l4.56 12.54zm-15.79 0-4.56-12.54h-7.76l4.59 12.54zm-39.66-36.63v-13.37l-7.25 2.61v13.34zm24.43 36.63-4.56-12.54h-7.73l4.56 12.54zm-39.33-31.52v-13.26l-7.34 2.61v13.34zm23.54 31.52-4.56-12.54h-7.75l4.56 12.54zm-37.8-26.04v-13.38l-7.31 2.7v13.26zm22.24 26.04-4.56-12.54h-7.73l4.56 12.54zm-37.22-20.93v-13.26l-7.26 2.58v13.37zm21.52 20.93-4.64-12.54h-7.67l4.48 12.54zm-15.4 0-4.64-12.54h-7.73l4.56 12.54z" fill="#000" />
        </g>
    </symbol>

    <symbol viewBox="0 0 40 40" id="slovakia-icon">
        <g strokeWidth="0.078">
            <circle cx="20" cy="20" r="20" fill="#fff" />
            <path
                fill="#0052b4"
                d="M20 40c11.046 0 20-8.954 20-20 0-2.446-.44-4.79-1.244-6.957H1.244A19.957 19.957 0 000 20c0 11.046 8.954 20 20 20z"
            />
            <path fill="#d80027" d="M20 40c8.6 0 15.93-5.428 18.756-13.044H1.244C4.07 34.572 11.401 40 20 40z" />
            <path fill="#fff" d="M5.172 11.304v9.977c0 5.675 7.414 7.414 7.414 7.414S20 26.956 20 21.281v-9.977z" />
            <path fill="#d80027" d="M6.91 11.304v9.977c0 .666.149 1.296.442 1.885H17.82c.293-.59.441-1.219.441-1.885v-9.977z" />
        </g>
        <path
            fill="#f0f0f0"
            d="M149.97 233.74L116.58 233.74 116.58 256 149.97 256 149.97 278.26 172.23 278.26 172.23 256 205.62 256 205.62 233.74 172.23 233.74 172.23 211.48 194.49 211.48 194.49 189.22 172.23 189.22 172.23 166.96 149.97 166.96 149.97 189.22 127.71 189.22 127.71 211.48 149.97 211.48z"
            transform="scale(.07813)"
        />
        <path
            fill="#0052b4"
            strokeWidth="0.078"
            d="M9.724 25.595c1.121.704 2.272 1.113 2.862 1.295.59-.182 1.74-.59 2.861-1.295 1.13-.71 1.923-1.523 2.373-2.428a3.03 3.03 0 00-2.448-.478 3.044 3.044 0 00-5.572 0 3.046 3.046 0 00-2.448.478c.45.905 1.242 1.718 2.373 2.428z"
        />
    </symbol>

    <symbol viewBox="0 0 40 40" id="united-kingdom-icon">
        <circle cx="20" cy="20" r="20" fill="#fff" strokeWidth="0.078" />
        <g fill="#0052b4">
            <path
                d="M52.92 100.14c-20.109 26.163-35.272 56.318-44.101 89.077h133.18zM503.18 189.22c-8.829-32.758-23.993-62.913-44.101-89.076l-89.075 89.076zM8.819 322.78c8.83 32.758 23.993 62.913 44.101 89.075l89.074-89.075zM411.86 52.921c-26.163-20.109-56.317-35.272-89.076-44.102v133.18zM100.14 459.08c26.163 20.109 56.318 35.272 89.076 44.102v-133.18zM189.22 8.819c-32.758 8.83-62.913 23.993-89.075 44.101l89.075 89.075zM322.78 503.18c32.758-8.83 62.913-23.993 89.075-44.101l-89.075-89.075zM370 322.78l89.075 89.076c20.108-26.162 35.272-56.318 44.101-89.076z"
                transform="scale(.07813)"
            />
        </g>
        <g fill="#d80027">
            <path
                d="M509.83 222.61H289.39V2.17A258.556 258.556 0 00255.998.003c-11.319 0-22.461.744-33.391 2.167v220.44H2.167A258.556 258.556 0 000 256.002c0 11.319.744 22.461 2.167 33.391h220.44v220.44a258.35 258.35 0 0066.783 0v-220.44h220.44a258.533 258.533 0 002.167-33.392c0-11.317-.744-22.461-2.167-33.391z"
                transform="scale(.07813)"
            />
            <path
                d="M322.78 322.78l114.24 114.24a256.636 256.636 0 0015.048-16.435l-97.802-97.802h-31.482zM189.22 322.78h-.002L74.978 437.02a256.636 256.636 0 0016.435 15.048l97.802-97.804zM189.22 189.22v-.002L74.98 74.978a256.636 256.636 0 00-15.048 16.435l97.803 97.803h31.481zM322.78 189.22L437.02 74.98a256.328 256.328 0 00-16.435-15.047l-97.802 97.803z"
                transform="scale(.07813)"
            />
        </g>
    </symbol>

    <symbol viewBox="0 0 35 40" id="trash-bin-icon">
        <path
            d="M60.236 210.82L90.354 512h331.29l30.118-301.18zm128 248.47H143.06V263.53h45.176zm90.353 0h-45.177V263.53h45.177zm90.353 0h-45.176V263.53h45.176zM391.53 90.353h-52.706v-7.529C338.824 37.155 301.67 0 256.001 0s-82.824 37.155-82.824 82.824v7.529h-52.706c-44.767 0-81.908 32.565-89.08 75.294h449.22c-7.171-42.729-44.312-75.294-89.079-75.294zm-97.882 0h-75.294v-7.529c0-20.759 16.888-37.647 37.647-37.647s37.647 16.888 37.647 37.647z"
            transform="matrix(.07791 0 0 .07813 -2.446 0)"
        />
    </symbol>

  </defs>
</svg>